<svg xmlns="http://www.w3.org/2000/svg" viewBox="0 0 1200 800">
<defs>
  <linearGradient id="bg" x1="0" y1="0" x2="1" y2="1"><stop stop-color="#172243"/><stop offset="1" stop-color="#0f1323"/></linearGradient>
  <linearGradient id="lane" x1="0" y1="0" x2="0" y2="1"><stop stop-color="#f4d28b"/><stop offset="1" stop-color="#d09534"/></linearGradient>
  <linearGradient id="ball" x1="0" y1="0" x2="1" y2="1"><stop stop-color="#ff7a3d"/><stop offset="1" stop-color="#dc3f0a"/></linearGradient>
</defs>
<rect width="1200" height="800" fill="url(#bg)"/>
<circle cx="1040" cy="110" r="140" fill="#20305f" opacity="0.55"/>
<circle cx="170" cy="660" r="220" fill="#1e2c58" opacity="0.5"/>
<path d="M220 720 L520 120 L980 120 L660 720 Z" fill="url(#lane)" opacity="0.95"/>
<path d="M400 720 L612 120" stroke="#f9e6bc" stroke-width="8" opacity=".65"/>
<path d="M530 720 L690 120" stroke="#f9e6bc" stroke-width="8" opacity=".65"/>
<path d="M660 720 L770 120" stroke="#f9e6bc" stroke-width="8" opacity=".65"/>
<g transform="translate(880 170)">
  <rect x="-20" y="30" width="28" height="110" rx="14" fill="#fff"/>
  <rect x="15" y="18" width="28" height="122" rx="14" fill="#fff"/>
  <rect x="50" y="8" width="28" height="132" rx="14" fill="#fff"/>
  <rect x="85" y="18" width="28" height="122" rx="14" fill="#fff"/>
  <rect x="120" y="30" width="28" height="110" rx="14" fill="#fff"/>
  <circle cx="56" cy="60" r="4" fill="#d42f2f"/><circle cx="67" cy="44" r="4" fill="#d42f2f"/><circle cx="79" cy="60" r="4" fill="#d42f2f"/>
</g>
<g transform="translate(310 555)">
  <circle cx="0" cy="0" r="92" fill="url(#ball)"/>
  <circle cx="-26" cy="-20" r="9" fill="#fff" opacity=".95"/>
  <circle cx="7" cy="-32" r="9" fill="#fff" opacity=".95"/>
  <circle cx="19" cy="3" r="9" fill="#fff" opacity=".95"/>
</g>
<rect x="70" y="70" width="300" height="44" rx="22" fill="#f05a28" opacity=".9"/>
<text x="100" y="100" font-size="28" font-family="Arial" font-weight="700" fill="#fff">Bowling Club</text>
</svg>