<svg xmlns="http://www.w3.org/2000/svg" viewBox="0 0 800 500"><rect width="800" height="500" fill="#fff5ef"/><rect width="800" height="120" fill="#5b2167"/><circle cx="120" cy="60" r="34" fill="#ffd66b"/><circle cx="210" cy="60" r="24" fill="#3bb3ff"/><circle cx="290" cy="60" r="30" fill="#ff6b8f"/><circle cx="650" cy="60" r="24" fill="#ffd66b"/><circle cx="720" cy="60" r="32" fill="#3bb3ff"/><path d="M115 90 Q135 130 155 90" stroke="#fff" stroke-width="3" fill="none"/><path d="M205 84 Q220 115 235 84" stroke="#fff" stroke-width="3" fill="none"/><path d="M285 88 Q300 120 315 88" stroke="#fff" stroke-width="3" fill="none"/><rect x="120" y="320" width="560" height="48" rx="22" fill="#e8c07c"/><rect x="165" y="288" width="470" height="58" rx="18" fill="#f7d59a"/><rect x="230" y="215" width="340" height="92" rx="16" fill="#fff" stroke="#ffdcb0"/><rect x="250" y="235" width="300" height="12" rx="6" fill="#f6bfd0"/><rect x="250" y="257" width="260" height="12" rx="6" fill="#c7e6ff"/><g transform="translate(170 330)"><circle cx="0" cy="0" r="32" fill="#f05a28"/><circle cx="-10" cy="-10" r="4" fill="#fff"/><circle cx="4" cy="-16" r="4" fill="#fff"/><circle cx="12" cy="-2" r="4" fill="#fff"/></g><g transform="translate(600 170)"><rect x="0" y="40" width="16" height="74" rx="8" fill="#fff"/><rect x="20" y="28" width="16" height="86" rx="8" fill="#fff"/><rect x="40" y="18" width="16" height="96" rx="8" fill="#fff"/><rect x="60" y="28" width="16" height="86" rx="8" fill="#fff"/></g></svg>