<svg xmlns="http://www.w3.org/2000/svg" viewBox="0 0 800 500"><rect width="800" height="500" fill="#eef4ff"/><rect y="0" width="800" height="110" fill="#1b2548"/><circle cx="90" cy="55" r="28" fill="#f4c542"/><rect x="120" y="32" width="120" height="18" rx="9" fill="#fff" opacity=".85"/><rect x="120" y="62" width="180" height="14" rx="7" fill="#d5def7"/><path d="M150 440 L280 120 L690 120 L560 440 Z" fill="#dfaa4c"/><path d="M280 440 L380 120" stroke="#fff3cf" stroke-width="7"/><path d="M390 440 L470 120" stroke="#fff3cf" stroke-width="7"/><path d="M500 440 L560 120" stroke="#fff3cf" stroke-width="7"/><g transform="translate(560 160)"><rect x="-12" y="16" width="20" height="70" rx="10" fill="#fff"/><rect x="15" y="8" width="20" height="78" rx="10" fill="#fff"/><rect x="42" y="0" width="20" height="86" rx="10" fill="#fff"/><rect x="69" y="8" width="20" height="78" rx="10" fill="#fff"/><rect x="96" y="16" width="20" height="70" rx="10" fill="#fff"/></g><circle cx="220" cy="365" r="54" fill="#f05a28"/><circle cx="203" cy="352" r="6" fill="#fff"/><circle cx="221" cy="338" r="6" fill="#fff"/><circle cx="235" cy="360" r="6" fill="#fff"/></svg>