<svg xmlns="http://www.w3.org/2000/svg" viewBox="0 0 900 600"><rect width="900" height="600" fill="#f3f6ff"/><rect x="70" y="80" width="760" height="440" rx="34" fill="#ffffff" stroke="#e3e8f5"/><rect x="120" y="130" width="340" height="46" rx="14" fill="#202b50"/><rect x="120" y="200" width="300" height="18" rx="9" fill="#d2daf1"/><rect x="120" y="230" width="260" height="18" rx="9" fill="#d2daf1"/><rect x="120" y="260" width="320" height="18" rx="9" fill="#d2daf1"/><rect x="500" y="140" width="250" height="250" rx="26" fill="#eef4ff"/><path d="M530 365 L590 190 L710 190 L650 365 Z" fill="#e4b254"/><path d="M586 365 L626 190" stroke="#fff4cd" stroke-width="5"/><path d="M622 365 L654 190" stroke="#fff4cd" stroke-width="5"/><g transform="translate(590 320)"><circle cx="0" cy="0" r="44" fill="#f05a28"/><circle cx="-12" cy="-10" r="5" fill="#fff"/><circle cx="1" cy="-18" r="5" fill="#fff"/><circle cx="10" cy="-2" r="5" fill="#fff"/></g><rect x="500" y="410" width="250" height="24" rx="12" fill="#d7def3"/><rect x="500" y="448" width="180" height="24" rx="12" fill="#d7def3"/></svg>