<svg xmlns="http://www.w3.org/2000/svg" viewBox="0 0 800 500"><rect width="800" height="500" fill="#eefaf6"/><rect width="800" height="110" fill="#143728"/><circle cx="105" cy="55" r="28" fill="#f4c542"/><path d="M350 110 L450 110 L510 355 L290 355 Z" fill="#f4c542"/><rect x="330" y="355" width="140" height="38" rx="10" fill="#d89b18"/><rect x="295" y="392" width="210" height="24" rx="8" fill="#bf830d"/><path d="M350 140 C288 150 250 182 250 220 C250 255 278 287 320 287" fill="none" stroke="#d89b18" stroke-width="20" stroke-linecap="round"/><path d="M450 140 C512 150 550 182 550 220 C550 255 522 287 480 287" fill="none" stroke="#d89b18" stroke-width="20" stroke-linecap="round"/><circle cx="400" cy="225" r="42" fill="#fff3d0"/><text x="384" y="240" font-size="44" font-family="Arial" font-weight="700" fill="#d28c0b">1</text><rect x="90" y="380" width="620" height="34" rx="16" fill="#d7efe4"/><circle cx="180" cy="397" r="20" fill="#f05a28"/><circle cx="174" cy="390" r="3" fill="#fff"/><circle cx="184" cy="384" r="3" fill="#fff"/><circle cx="188" cy="397" r="3" fill="#fff"/></svg>