<svg xmlns="http://www.w3.org/2000/svg" viewBox="0 0 900 520"><rect width="900" height="520" fill="#edf2fb"/><path d="M0 360 C140 320 200 290 340 330 C460 364 600 460 900 340 L900 520 L0 520 Z" fill="#d8eef9"/><path d="M80 80 L350 80 L350 450 L80 450 Z" fill="#f8fbff" stroke="#d7dff1"/><path d="M390 60 L820 60 L820 460 L390 460 Z" fill="#ffffff" stroke="#d7dff1"/><path d="M160 90 L160 440" stroke="#d7dff1" stroke-width="10"/><path d="M80 180 L350 180" stroke="#d7dff1" stroke-width="10"/><path d="M80 290 L350 290" stroke="#d7dff1" stroke-width="10"/><path d="M465 80 L465 450" stroke="#d7dff1" stroke-width="10"/><path d="M605 60 L605 460" stroke="#d7dff1" stroke-width="10"/><path d="M390 160 L820 160" stroke="#d7dff1" stroke-width="10"/><path d="M390 300 L820 300" stroke="#d7dff1" stroke-width="10"/><path d="M390 410 L820 410" stroke="#d7dff1" stroke-width="10"/><path d="M40 440 C200 320 350 300 520 350 C640 385 720 360 860 240" fill="none" stroke="#f05a28" stroke-width="18" stroke-linecap="round"/><circle cx="580" cy="335" r="34" fill="#202b50"/><path d="M580 270 C545 270 516 299 516 334 C516 384 580 448 580 448 C580 448 644 384 644 334 C644 299 615 270 580 270 Z" fill="#f05a28"/><circle cx="580" cy="334" r="18" fill="#fff"/></svg>